<?xml version="1.0" standalone="no"?>
<!DOCTYPE svg PUBLIC "-//W3C//DTD SVG 20010904//EN"
 "http://www.w3.org/TR/2001/REC-SVG-20010904/DTD/svg10.dtd">
<svg version="1.0" xmlns="http://www.w3.org/2000/svg"
 width="300.000000pt" height="52.000000pt" viewBox="0 0 300.000000 52.000000"
 preserveAspectRatio="xMidYMid meet">
<metadata>
Created by potrace 1.10, written by Peter Selinger 2001-2011
</metadata>
<g transform="translate(0.000000,52.000000) scale(0.100000,-0.100000)"
fill="#000000" stroke="none">
<path d="M269 503 c-10 -11 -14 -43 -13 -107 4 -338 5 -344 21 -350 26 -10 35
8 35 70 1 61 17 115 45 146 25 28 33 12 33 -63 0 -75 17 -121 49 -139 43 -23
57 4 21 40 -14 14 -20 34 -20 63 -2 140 -47 188 -117 124 l-23 -20 0 121 c0
66 -4 123 -9 126 -5 3 -15 -2 -22 -11z"/>
<path d="M552 458 c-13 -13 -16 -41 -5 -51 10 -10 33 13 33 34 0 23 -14 31
-28 17z"/>
<path d="M1575 441 c-39 -23 -84 -76 -102 -118 -31 -76 -7 -179 51 -214 41
-25 62 -24 121 9 62 34 86 75 92 156 7 77 -8 127 -48 161 -36 30 -73 32 -114
6z m94 -47 c27 -34 30 -148 5 -195 -17 -33 -91 -73 -117 -63 -52 20 -68 133
-28 198 28 44 77 86 101 86 10 0 28 -12 39 -26z"/>
<path d="M1198 433 c-22 -6 -26 -20 -38 -139 -12 -127 -12 -245 0 -264 8 -13
13 -13 30 -2 11 7 24 10 29 8 13 -8 82 14 112 36 62 46 88 180 50 263 -27 60
-83 105 -129 104 -20 -1 -45 -3 -54 -6z m102 -33 c15 -11 37 -43 50 -72 50
-116 -12 -248 -117 -248 -38 0 -35 -15 -33 160 1 163 5 180 42 180 16 0 42 -9
58 -20z"/>
<path d="M2470 344 c-18 -47 -22 -101 -10 -124 13 -25 94 -64 116 -56 28 11
14 35 -25 46 -21 5 -44 16 -50 24 -9 11 -5 15 19 20 29 5 50 35 50 71 0 23
-30 45 -61 45 -22 0 -32 -6 -39 -26z m70 -22 c0 -21 -27 -62 -41 -62 -10 0
-12 40 -3 64 9 22 44 21 44 -2z"/>
<path d="M2686 351 c-28 -31 -45 -90 -35 -125 10 -35 64 -86 91 -86 28 0 21
28 -12 45 -16 8 -34 24 -40 34 -8 16 -5 20 18 26 52 12 74 34 67 63 -14 58
-57 78 -89 43z m58 -52 c-3 -5 -18 -16 -35 -24 -33 -18 -37 -9 -13 36 15 29
16 30 34 14 11 -10 17 -22 14 -26z"/>
<path d="M2887 343 c-8 -10 -18 -35 -22 -56 -4 -20 -14 -41 -22 -46 -11 -6
-12 -10 -4 -15 6 -4 11 -17 11 -30 0 -29 38 -64 84 -77 39 -11 56 -6 56 17 0
9 -10 14 -29 14 -32 0 -81 34 -81 56 0 9 11 14 34 14 55 0 81 32 77 92 -1 18
-48 48 -74 48 -8 0 -21 -8 -30 -17z m67 -29 c9 -8 16 -19 16 -23 0 -19 -28
-41 -59 -47 -32 -7 -33 -6 -26 17 23 74 37 85 69 53z"/>
<path d="M51 325 c-50 -43 -44 -76 30 -146 53 -51 60 -63 57 -91 -4 -41 -26
-47 -80 -22 -29 13 -42 14 -50 6 -28 -28 61 -70 125 -58 26 5 38 14 47 37 21
49 0 99 -65 155 -30 25 -55 52 -55 59 0 20 49 55 77 55 38 0 22 25 -19 28 -26
2 -43 -4 -67 -23z"/>
<path d="M2284 332 c-53 -42 -58 -101 -14 -154 31 -37 82 -57 115 -44 26 9 5
36 -28 36 -35 0 -87 43 -87 71 0 32 23 69 46 75 54 14 62 -38 9 -63 -39 -19
-48 -38 -12 -27 56 17 77 34 77 63 0 54 -62 79 -106 43z"/>
<path d="M1986 318 c-9 -12 -16 -36 -16 -53 -1 -16 -7 -59 -14 -94 -8 -35 -12
-70 -9 -78 8 -21 43 -16 43 6 0 38 40 148 61 167 l22 19 -8 -50 c-14 -87 -12
-126 8 -139 25 -16 37 7 37 72 0 33 7 63 18 80 l17 26 5 -74 c4 -67 7 -75 25
-75 18 0 20 7 20 77 -1 48 -6 82 -14 92 -16 19 -52 21 -69 4 -9 -9 -12 -9 -12
-1 0 18 -37 25 -60 13 -16 -8 -20 -8 -20 4 0 25 -18 27 -34 4z"/>
<path d="M706 310 c-10 -28 -26 -171 -26 -236 0 -56 2 -64 19 -64 20 0 31 39
31 120 1 59 32 130 58 130 23 0 31 -24 33 -90 1 -88 47 -155 92 -137 24 9 21
37 -3 37 -27 0 -41 31 -51 112 -5 37 -13 77 -19 88 -13 25 -66 27 -100 3 -18
-13 -22 -13 -18 -2 3 8 2 23 -2 34 -6 16 -9 17 -14 5z"/>
<path d="M566 273 c-2 -16 -8 -67 -11 -114 -6 -76 -5 -87 11 -93 9 -4 21 -3
26 2 10 10 -2 232 -13 232 -4 0 -10 -12 -13 -27z"/>
<path d="M1040 285 c-9 -11 -10 -18 -1 -29 12 -15 51 -10 63 7 20 32 -37 52
-62 22z"/>
<path d="M1845 274 c-19 -19 -20 -54 -1 -54 29 0 46 13 46 35 0 29 -25 39 -45
19z"/>
</g>
</svg>
